<?xml version="1.0" encoding="utf-8" standalone="no"?>
<!DOCTYPE svg PUBLIC "-//W3C//DTD SVG 1.1//EN" "http://www.w3.org/Graphics/SVG/1.1/DTD/svg11.dtd">
<svg xmlns="http://www.w3.org/2000/svg" xmlns:xl="http://www.w3.org/1999/xlink" version="1.1" viewBox="0 0 442.99843 517.20945" width="442.99843pt" height="517.20945pt" xmlns:dc="http://purl.org/dc/elements/1.1/"><metadata> Produced by OmniGraffle 6.0.5 <dc:date>2020-01-20 21:31Z</dc:date></metadata><defs/><g stroke="none" stroke-opacity="1" stroke-dasharray="none" fill="none" fill-opacity="1"><title>Canvas 2</title><g><title>Layer 1</title><a xl:href="../Downloads/icon.svg"><path d="M 1782.9921 133.228346 L 2004.0945 262.20472 L 2004.0945 520.15748 L 1782.9921 649.13385 L 1561.8898 520.15748 L 1561.8898 262.20472 Z" fill="#464646"/><path d="M 1782.9921 133.228346 L 2004.0945 262.20472 L 2004.0945 520.15748 L 1782.9921 649.13385 L 1561.8898 520.15748 L 1561.8898 262.20472 Z" stroke="#464646" stroke-linecap="round" stroke-linejoin="round" stroke-width="1"/></a><rect x="1587.4016" y="182.53543" width="401.44882" height="401.44882" id="path"/><clipPath id="clip_path"><use xl:href="#path"/></clipPath><g clip-path="url(#clip_path)"><image xl:href="image5.tiff" width="512" height="512" transform="translate(1587.4016 182.53543) scale(.78407973)"/></g><a xl:href="../Downloads/icon.svg"><path d="M 221.58425 .70866142 L 442.6866 129.68504 L 442.6866 387.6378 L 221.58425 516.61417 L .4818893 387.6378 L .4818893 129.68504 Z" fill="#464646"/><path d="M 221.58425 .70866142 L 442.6866 129.68504 L 442.6866 387.6378 L 221.58425 516.61417 L .4818893 387.6378 L .4818893 129.68504 Z" stroke="#464646" stroke-linecap="round" stroke-linejoin="round" stroke-width="1"/></a><rect x="204.00948" y="147.11811" width="39.68504" height="120" fill="#c1c1c1"/><rect x="204.00948" y="147.11811" width="39.68504" height="120" stroke="#c1c1c1" stroke-linecap="round" stroke-linejoin="round" stroke-width="4"/><path d="M 340.63937 340.86614 L 340.63937 182.12598 C 252.9696 182.12598 181.89921 253.19637 181.89921 340.86614 Z" fill="#464646"/><path d="M 340.63937 340.86614 L 340.63937 182.12598 C 252.9696 182.12598 181.89921 253.19637 181.89921 340.86614 Z" stroke="#464646" stroke-linecap="round" stroke-linejoin="round" stroke-width="1"/><path d="M 342.0567 342.23622 L 342.0567 201.92126 C 264.56288 201.92126 201.74173 264.7424 201.74173 342.23622 Z" fill="#878787"/><path d="M 342.0567 342.23622 L 342.0567 201.92126 C 264.56288 201.92126 201.74173 264.7424 201.74173 342.23622 Z" stroke="#878787" stroke-linecap="round" stroke-linejoin="round" stroke-width="1"/><path d="M 105.36378 340.86614 L 105.36378 182.12598 C 193.03355 182.12598 264.10394 253.19637 264.10394 340.86614 Z" fill="#464646"/><path d="M 105.36378 340.86614 L 105.36378 182.12598 C 193.03355 182.12598 264.10394 253.19637 264.10394 340.86614 Z" stroke="#464646" stroke-linecap="round" stroke-linejoin="round" stroke-width="1"/><path d="M 342.76533 342.94488 L 342.76533 245.85824 C 289.14586 245.85824 245.6787 289.32541 245.6787 342.94488 Z" fill="#464646"/><path d="M 342.76533 342.94488 L 342.76533 245.85824 C 289.14586 245.85824 245.6787 289.32541 245.6787 342.94488 Z" stroke="#464646" stroke-linecap="round" stroke-linejoin="round" stroke-width="1"/><path d="M 103.946456 342.28346 L 103.946456 201.9685 C 181.44027 201.9685 244.26142 264.78965 244.26142 342.28346 Z" fill="white"/><path d="M 103.946456 342.28346 L 103.946456 201.9685 C 181.44027 201.9685 244.26142 264.78965 244.26142 342.28346 Z" stroke="white" stroke-linecap="round" stroke-linejoin="round" stroke-width="1"/><path d="M 103.26145 342.9685 L 103.26145 245.90549 C 156.867865 245.90549 200.32445 289.36207 200.32445 342.9685 Z" fill="#464646"/><path d="M 103.26145 342.9685 L 103.26145 245.90549 C 156.867865 245.90549 200.32445 289.36207 200.32445 342.9685 Z" stroke="#464646" stroke-linecap="round" stroke-linejoin="round" stroke-width="1"/><path d="M 355.83713 181.77697 L 408.13757 217.64013 C 410.415 219.2018 410.99524 222.31399 409.43357 224.59142 C 409.08512 225.09958 408.64574 225.53896 408.13757 225.88742 L 355.83713 261.75058 C 353.5597 263.31224 350.4475 262.732 348.88584 260.45458 C 348.315 259.6221 348.00949 258.63634 348.00949 257.62694 L 348.00949 185.90062 C 348.00949 183.13919 350.24806 180.90062 353.00949 180.90062 C 354.01888 180.90062 355.00465 181.20613 355.83713 181.77697 Z" fill="#878787"/><path d="M 355.83713 181.77697 L 408.13757 217.64013 C 410.415 219.2018 410.99524 222.31399 409.43357 224.59142 C 409.08512 225.09958 408.64574 225.53896 408.13757 225.88742 L 355.83713 261.75058 C 353.5597 263.31224 350.4475 262.732 348.88584 260.45458 C 348.315 259.6221 348.00949 258.63634 348.00949 257.62694 L 348.00949 185.90062 C 348.00949 183.13919 350.24806 180.90062 353.00949 180.90062 C 354.01888 180.90062 355.00465 181.20613 355.83713 181.77697 Z" stroke="#878787" stroke-linecap="round" stroke-linejoin="round" stroke-width="18"/><path d="M 87.14246 181.77697 L 34.842015 217.64013 C 32.56459 219.2018 31.98435 222.31399 33.546013 224.59142 C 33.894469 225.09958 34.33385 225.53896 34.842015 225.88742 L 87.14246 261.75058 C 89.419884 263.31224 92.53208 262.732 94.093744 260.45458 C 94.66459 259.6221 94.9701 258.63634 94.9701 257.62694 L 94.9701 185.90062 C 94.9701 183.13919 92.731524 180.90062 89.9701 180.90062 C 88.9607 180.90062 87.97494 181.20613 87.14246 181.77697 Z" fill="white"/><path d="M 87.14246 181.77697 L 34.842015 217.64013 C 32.56459 219.2018 31.98435 222.31399 33.546013 224.59142 C 33.894469 225.09958 34.33385 225.53896 34.842015 225.88742 L 87.14246 261.75058 C 89.419884 263.31224 92.53208 262.732 94.093744 260.45458 C 94.66459 259.6221 94.9701 258.63634 94.9701 257.62694 L 94.9701 185.90062 C 94.9701 183.13919 92.731524 180.90062 89.9701 180.90062 C 88.9607 180.90062 87.97494 181.20613 87.14246 181.77697 Z" stroke="white" stroke-linecap="round" stroke-linejoin="round" stroke-width="18"/><path d="M 263.87027 131.73141 L 228.00711 79.43097 C 226.44545 77.153542 223.33325 76.5733 221.05582 78.134966 C 220.54766 78.48342 220.10828 78.922803 219.75982 79.43097 L 183.89666 131.73141 C 182.335 134.00884 182.91524 137.12103 185.19266 138.6827 C 186.02514 139.25354 187.0109 139.55905 188.0203 139.55905 L 259.74662 139.55905 C 262.50805 139.55905 264.74662 137.32048 264.74662 134.55905 C 264.74662 133.549654 264.44111 132.56389 263.87027 131.73141 Z" fill="#c1c1c1"/><path d="M 263.87027 131.73141 L 228.00711 79.43097 C 226.44545 77.153542 223.33325 76.5733 221.05582 78.134966 C 220.54766 78.48342 220.10828 78.922803 219.75982 79.43097 L 183.89666 131.73141 C 182.335 134.00884 182.91524 137.12103 185.19266 138.6827 C 186.02514 139.25354 187.0109 139.55905 188.0203 139.55905 L 259.74662 139.55905 C 262.50805 139.55905 264.74662 137.32048 264.74662 134.55905 C 264.74662 133.549654 264.44111 132.56389 263.87027 131.73141 Z" stroke="#c1c1c1" stroke-linecap="round" stroke-linejoin="round" stroke-width="18"/><circle cx="223.28499" cy="374.83464" r="68.031604" fill="white"/><circle cx="223.28499" cy="374.83464" r="68.031604" stroke="white" stroke-linecap="round" stroke-linejoin="round" stroke-width="7"/><circle cx="223.28499" cy="374.83464" r="25.511852" fill="#464646"/><circle cx="223.28499" cy="374.83464" r="25.511852" stroke="#464646" stroke-linecap="round" stroke-linejoin="round" stroke-width="5"/></g></g></svg>
